<?xml version="1.0" encoding="utf-8"?>
<!-- Generator: Adobe Illustrator 18.0.0, SVG Export Plug-In . SVG Version: 6.00 Build 0)  -->
<!DOCTYPE svg PUBLIC "-//W3C//DTD SVG 1.1//EN" "http://www.w3.org/Graphics/SVG/1.1/DTD/svg11.dtd">
<svg version="1.1" id="Layer_1" xmlns="http://www.w3.org/2000/svg" xmlns:xlink="http://www.w3.org/1999/xlink" x="0px" y="0px"
	 viewBox="0 0 38 42" enable-background="new 0 0 38 42" xml:space="preserve">
<g id="face-detectsvg">
	<path id="path-1" d="M35,26h-6v-2h6v-6h2v6C37,25.1,36.1,26,35,26z M35,2h-6V0h6c1.1,0,2,0.9,2,2v6h-2V2z M1,24v-6h2v6h6v2H3
		C1.9,26,1,25.1,1,24z M3,8H1V2c0-1.1,0.9-2,2-2h6v2H3V8z"/>
	<path id="path-2" d="M18.3,6c0.3,0,0.5,0,0.8,0c3.9,0.4,7,3.4,6.4,7.1c0,0-0.1,1.1-0.3,2.3c0,0.2,0,0.4,0.1,0.7
		c0.1,0,0.2-0.1,0.3-0.1c0,0,0,0,0.1,0c0.6,0.1,1,1.2,0.9,2.6c-0.1,1.3-0.7,2.2-1.3,2.2c0,0-0.1,0-0.1,0c0,0,0,0,0,0
		c-0.4,2.1-1.3,3.9-2.4,5.2v2.6c0,0,0,0,0,0c1.2,0.3,6.4,1.6,8.8,2.4c2.5,0.9,3.5,2.7,3.9,3.6c0.4,0.9,0.6,3.4,0.6,3.4
		c-1.5,1.7-17,1.9-17,1.9S3.5,39.8,2,38.1c0,0,0.2-2.5,0.6-3.4C2.9,33.9,4,32,6.5,31.2c2.3-0.8,7.5-2.1,8.7-2.4c0,0,0,0,0,0v-2.2
		c-1.2-1.4-2.2-3.3-2.7-5.6c0,0,0,0,0,0c0,0-0.1,0-0.1,0c-0.6,0-1.2-1-1.3-2.2c-0.1-1.2,0.2-2.2,0.7-2.5c-0.2-1.8-0.4-5-0.2-5.5
		c0.3-0.7,1.2-2.3,2.5-2.6C14.1,8,15.1,6,18.3,6 M18.3,4L18.3,4c-3.1,0-4.7,1.4-5.5,2.3C10.9,7.2,10,9.2,9.7,9.8
		c-0.1,0.3-0.5,1.1,0,5.7c-0.6,1-0.7,2.3-0.6,3.3c0.2,1.6,0.8,2.9,1.7,3.5c0.5,1.8,1.3,3.4,2.4,4.8c-2.1,0.5-5.6,1.5-7.4,2.1
		C2.5,30.4,1.1,33,0.7,34c-0.4,1.1-0.7,3.3-0.7,3.9c0,0.5,0.1,1.1,0.5,1.5C1,40,2.5,41.8,18.9,42c16.5-0.2,18-2,18.5-2.6
		c0.3-0.4,0.5-0.9,0.5-1.5c-0.1-0.7-0.3-2.9-0.7-3.9c-0.5-1.3-1.9-3.6-5.1-4.7c-1.8-0.6-5.3-1.6-7.4-2.1v-0.4
		c0.9-1.3,1.6-2.8,2.1-4.4c0.9-0.7,1.6-1.9,1.7-3.5c0.2-1.8-0.3-3.2-1.1-4.1c0.1-0.7,0.1-1.2,0.1-1.4c0.3-2.1-0.3-4.2-1.6-5.9
		c-1.5-2-4-3.2-6.6-3.5C19,4,18.6,4,18.3,4L18.3,4z"/>
</g>
</svg>
