<?xml version="1.0" encoding="utf-8"?>
<!-- Generator: Adobe Illustrator 18.0.0, SVG Export Plug-In . SVG Version: 6.00 Build 0)  -->
<!DOCTYPE svg PUBLIC "-//W3C//DTD SVG 1.1//EN" "http://www.w3.org/Graphics/SVG/1.1/DTD/svg11.dtd">
<svg version="1.1" id="Layer_1" xmlns="http://www.w3.org/2000/svg" xmlns:xlink="http://www.w3.org/1999/xlink" x="0px" y="0px"
	 viewBox="0 0 44 32" enable-background="new 0 0 44 32" xml:space="preserve">
<g id="metering-centersvg">
	<path id="path-1" d="M42,32H26v-2h16v-6v-2V2H26V0h16c1.1,0,2,0.9,2,2v20v2v6C44,31.1,43.1,32,42,32z M32,15h-2
		c-0.5-3.9-3.9-7-7.9-7s-7.4,3.1-7.9,7h-2c0.5-5.1,4.8-9,9.9-9S31.4,9.9,32,15z M2,22v2v6h16v2H2c-1.1,0-2-0.9-2-2v-6v-2V2
		c0-1.1,0.9-2,2-2h16v2H2V22z M22,22c-3.3,0-6-2.7-6-6s2.7-6,6-6s6,2.7,6,6S25.3,22,22,22z M32,17c-0.5,5.1-4.8,9-10,9
		s-9.4-3.9-9.9-9h2c0.5,3.9,3.9,7,7.9,7s7.4-3.1,7.9-7H32z"/>
</g>
</svg>
